<svg xmlns="http://www.w3.org/2000/svg" xmlns:xlink="http://www.w3.org/1999/xlink" xml:lang="en" height="185.83999999999997pt" width="174.248pt" viewBox="-105.064 -35.8 174.248 185.83999999999997" style="background-color:white;"><circle cx="-34.2" cy="27" r="4.2" style="stroke:black;fill:none;stroke-width:2.0;stroke-dasharray:-;" /><path d="M 0.0,54.0 L 0,39 L -24,39 L -24,15 L 0,15 L 0,-0" style="stroke:black;fill:none;stroke-width:2.0;stroke-dasharray:-;stroke-linecap:round;stroke-linejoin:round;" /><path d="M -29.999999999999996,39.0 L -30,15" style="stroke:black;fill:none;stroke-width:2.0;stroke-dasharray:-;stroke-linecap:round;stroke-linejoin:round;" /><path d="M -49.2,27.0 L -38.4,27" style="stroke:black;fill:none;stroke-width:2.0;stroke-dasharray:-;stroke-linecap:round;stroke-linejoin:round;" /><path d="M 0.0,54.0 L -0,61.2 L -0,68.4" style="stroke:black;fill:none;stroke-width:2.0;stroke-dasharray:-;stroke-linecap:round;stroke-linejoin:round;" /><path d="M -2.645237086158283e-15,122.39999999999999 L -0,107.4 L -24,107.4 L -24,83.4 L -0,83.4 L -0,68.4" style="stroke:black;fill:none;stroke-width:2.0;stroke-dasharray:-;stroke-linecap:round;stroke-linejoin:round;" /><path d="M -30.0,107.4 L -30,83.4" style="stroke:black;fill:none;stroke-width:2.0;stroke-dasharray:-;stroke-linecap:round;stroke-linejoin:round;" /><path d="M -49.2,95.39999999999999 L -30,95.4" style="stroke:black;fill:none;stroke-width:2.0;stroke-dasharray:-;stroke-linecap:round;stroke-linejoin:round;" /><path d="M 0.0,-0.0 L 0,-10.8 L 0,-21.6" style="stroke:black;fill:none;stroke-width:2.0;stroke-dasharray:-;stroke-linecap:round;stroke-linejoin:round;" /><path d="M -2.645237086158283e-15,122.39999999999999 L -0,136.8 L -9,136.8 L 9,136.8 M -6.3,141.12 L 6.3,141.12 M -1.8,145.44 L 1.8,145.44" style="stroke:black;fill:none;stroke-width:2.0;stroke-dasharray:-;stroke-linecap:round;stroke-linejoin:round;" /><path d="M -49.2,27.0 L -49.2,61.2 L -49.2,95.4" style="stroke:black;fill:none;stroke-width:2.0;stroke-dasharray:-;stroke-linecap:round;stroke-linejoin:round;" /><path d="M -49.2,61.199999999999996 L -67.2,61.2 L -85.2,61.2" style="stroke:black;fill:none;stroke-width:2.0;stroke-dasharray:-;stroke-linecap:round;stroke-linejoin:round;" /><path d="M 0.0,54.0 L 18,54 L 36,54" style="stroke:black;fill:none;stroke-width:2.0;stroke-dasharray:-;stroke-linecap:round;stroke-linejoin:round;" /><text x="-3.5999999999999988" y="-37.2" dominant-baseline="central" fill="black" font-size="12" font-family="sans" text-anchor="middle"><tspan x="-3.5999999999999988" dy="12">VDD</tspan></text><text x="-88.80000000000001" y="49.19999999999999" dominant-baseline="central" fill="black" font-size="12" font-family="sans" text-anchor="end"><tspan x="-88.80000000000001" dy="12">IN</tspan></text><text x="39.6" y="45.6" dominant-baseline="hanging" fill="black" font-size="12" font-family="sans" text-anchor="start"><tspan x="39.6" dy="12">OUT</tspan></text><circle cx="-49.2" cy="61.2" r="2.7" style="stroke:black;fill:black;stroke-width:2.0;stroke-dasharray:-;" /><circle cx="0" cy="54" r="2.7" style="stroke:black;fill:black;stroke-width:2.0;stroke-dasharray:-;" /></svg>