<svg xmlns="http://www.w3.org/2000/svg" xmlns:xlink="http://www.w3.org/1999/xlink" xml:lang="en" height="120.79999999999998pt" width="347.9359999999999pt" viewBox="-123.56799999999998 -33.4 347.9359999999999 120.79999999999998" style="background-color:white;"><circle cx="-34.2" cy="27" r="4.2" style="stroke:black;fill:none;stroke-width:2.0;stroke-dasharray:-;" /><path d="M 0.0,54.0 L 0,39 L -24,39 L -24,15 L 0,15 L 0,-0" style="stroke:black;fill:none;stroke-width:2.0;stroke-dasharray:-;stroke-linecap:round;stroke-linejoin:round;" /><path d="M -29.999999999999996,39.0 L -30,15" style="stroke:black;fill:none;stroke-width:2.0;stroke-dasharray:-;stroke-linecap:round;stroke-linejoin:round;" /><path d="M -49.2,27.0 L -38.4,27" style="stroke:black;fill:none;stroke-width:2.0;stroke-dasharray:-;stroke-linecap:round;stroke-linejoin:round;" /><path d="M 100.8,-0.0 L 100.8,15 L 124.8,15 L 124.8,39 L 100.8,39 L 100.8,54" style="stroke:black;fill:none;stroke-width:2.0;stroke-dasharray:-;stroke-linecap:round;stroke-linejoin:round;" /><path d="M 130.79999999999998,14.999999999999998 L 130.8,39" style="stroke:black;fill:none;stroke-width:2.0;stroke-dasharray:-;stroke-linecap:round;stroke-linejoin:round;" /><path d="M 130.79999999999998,27.0 L 150,27" style="stroke:black;fill:none;stroke-width:2.0;stroke-dasharray:-;stroke-linecap:round;stroke-linejoin:round;" /><path d="M 0.0,-0.0 L 50.4,-0 L 100.8,-0" style="stroke:black;fill:none;stroke-width:2.0;stroke-dasharray:-;stroke-linecap:round;stroke-linejoin:round;" /><path d="M 50.4,-0.0 L 50.4,-14.4 L 50.4,-28.8" style="stroke:black;fill:none;stroke-width:2.0;stroke-dasharray:-;stroke-linecap:round;stroke-linejoin:round;" /><path d="M 0.0,54.0 L 50.4,54 L 100.8,54" style="stroke:black;fill:none;stroke-width:2.0;stroke-dasharray:-;stroke-linecap:round;stroke-linejoin:round;" /><path d="M 50.4,54.0 L 50.4,68.4 L 50.4,82.8" style="stroke:black;fill:none;stroke-width:2.0;stroke-dasharray:-;stroke-linecap:round;stroke-linejoin:round;" /><path d="M -49.2,27.0 L -70.8,27 L -92.4,27" style="stroke:black;fill:none;stroke-width:2.0;stroke-dasharray:-;stroke-linecap:round;stroke-linejoin:round;" /><path d="M 149.99999999999997,27.0 L 171.6,27 L 193.2,27" style="stroke:black;fill:none;stroke-width:2.0;stroke-dasharray:-;stroke-linecap:round;stroke-linejoin:round;" /><text x="46.8" y="-26.4" dominant-baseline="central" fill="black" font-size="12" font-family="sans" text-anchor="end"><tspan x="46.8" dy="12">IN</tspan></text><text x="53.99999999999999" y="56.39999999999999" dominant-baseline="central" fill="black" font-size="12" font-family="sans" text-anchor="start"><tspan x="53.99999999999999" dy="12">OUT</tspan></text><text x="-96.0" y="14.999999999999996" dominant-baseline="central" fill="black" font-size="12" font-family="sans" text-anchor="end"><tspan x="-96.0" dy="12"><tspan text-decoration="overline">CLK</tspan></tspan></text><text x="196.79999999999998" y="15.0" dominant-baseline="central" fill="black" font-size="12" font-family="sans" text-anchor="start"><tspan x="196.79999999999998" dy="12">CLK</tspan></text><circle cx="50.4" cy="-0" r="2.7" style="stroke:black;fill:black;stroke-width:2.0;stroke-dasharray:-;" /><circle cx="50.4" cy="54" r="2.7" style="stroke:black;fill:black;stroke-width:2.0;stroke-dasharray:-;" /></svg>