<?xml version="1.0" encoding="UTF-8"?>
<svg xmlns="http://www.w3.org/2000/svg" width="400" height="480" viewBox="0 0 400 480">
<rect width="100%" height="100%" fill="#ffffff"/>
<text x="12.0" y="20.0" font-family="DejaVu Sans, Noto Sans, sans-serif" font-size="15" font-weight="600" fill="#111" text-anchor="start">AOI21</text>
<text x="12.0" y="38.0" font-family="DejaVu Sans, Noto Sans, sans-serif" font-size="12" font-weight="400" fill="#555" text-anchor="start">F = NOT (A + B·C)  |  PUN: A series (B//C); PDN: A // (B series C)</text>
<text x="200.0" y="62.0" font-family="DejaVu Sans, Noto Sans, sans-serif" font-size="14" font-weight="400" fill="#222" text-anchor="middle">VDD</text>
<line x1="200.0" y1="70.0" x2="200.0" y2="160.0" stroke="#222222" stroke-width="2" stroke-linecap="square"/>
<line x1="188.0" y1="93.0" x2="188.0" y2="137.0" stroke="#222222" stroke-width="2" stroke-linecap="square"/>
<line x1="188.0" y1="115.0" x2="188.0" y2="115.0" stroke="#222222" stroke-width="2" stroke-linecap="square"/>
<circle cx="183.0" cy="115.0" r="5" fill="#fff" stroke="#222222" stroke-width="2"/>
<line x1="178.0" y1="115.0" x2="150.0" y2="115.0" stroke="#222222" stroke-width="2" stroke-linecap="square"/>
<text x="146.0" y="120.0" font-family="DejaVu Sans, Noto Sans, sans-serif" font-size="14" font-weight="400" fill="#222" text-anchor="end">A</text>
<line x1="130.0" y1="160.0" x2="270.0" y2="160.0" stroke="#222222" stroke-width="2" stroke-linecap="square"/>
<circle cx="200.0" cy="160.0" r="2.5" fill="#222222"/>
<line x1="130.0" y1="160.0" x2="130.0" y2="250.0" stroke="#222222" stroke-width="2" stroke-linecap="square"/>
<line x1="270.0" y1="160.0" x2="270.0" y2="250.0" stroke="#222222" stroke-width="2" stroke-linecap="square"/>
<line x1="130.0" y1="250.0" x2="270.0" y2="250.0" stroke="#222222" stroke-width="2" stroke-linecap="square"/>
<line x1="118.0" y1="183.0" x2="118.0" y2="227.0" stroke="#222222" stroke-width="2" stroke-linecap="square"/>
<line x1="118.0" y1="205.0" x2="118.0" y2="205.0" stroke="#222222" stroke-width="2" stroke-linecap="square"/>
<circle cx="113.0" cy="205.0" r="5" fill="#fff" stroke="#222222" stroke-width="2"/>
<line x1="108.0" y1="205.0" x2="80.0" y2="205.0" stroke="#222222" stroke-width="2" stroke-linecap="square"/>
<text x="76.0" y="210.0" font-family="DejaVu Sans, Noto Sans, sans-serif" font-size="14" font-weight="400" fill="#222" text-anchor="end">B</text>
<line x1="258.0" y1="183.0" x2="258.0" y2="227.0" stroke="#222222" stroke-width="2" stroke-linecap="square"/>
<line x1="258.0" y1="205.0" x2="258.0" y2="205.0" stroke="#222222" stroke-width="2" stroke-linecap="square"/>
<circle cx="253.0" cy="205.0" r="5" fill="#fff" stroke="#222222" stroke-width="2"/>
<line x1="248.0" y1="205.0" x2="220.0" y2="205.0" stroke="#222222" stroke-width="2" stroke-linecap="square"/>
<text x="216.0" y="210.0" font-family="DejaVu Sans, Noto Sans, sans-serif" font-size="14" font-weight="400" fill="#222" text-anchor="end">C</text>
<line x1="200.0" y1="250.0" x2="340.0" y2="250.0" stroke="#222222" stroke-width="2" stroke-linecap="square"/>
<circle cx="200.0" cy="250.0" r="2.5" fill="#222222"/>
<text x="348.0" y="255.0" font-family="DejaVu Sans, Noto Sans, sans-serif" font-size="14" font-weight="400" fill="#222" text-anchor="start">F</text>
<line x1="90.0" y1="250.0" x2="90.0" y2="430.0" stroke="#222222" stroke-width="2" stroke-linecap="square"/>
<line x1="78.0" y1="318.0" x2="78.0" y2="362.0" stroke="#222222" stroke-width="2" stroke-linecap="square"/>
<line x1="78.0" y1="340.0" x2="50.0" y2="340.0" stroke="#222222" stroke-width="2" stroke-linecap="square"/>
<text x="46.0" y="345.0" font-family="DejaVu Sans, Noto Sans, sans-serif" font-size="14" font-weight="400" fill="#222" text-anchor="end">A</text>
<line x1="290.0" y1="250.0" x2="290.0" y2="430.0" stroke="#222222" stroke-width="2" stroke-linecap="square"/>
<line x1="278.0" y1="283.0" x2="278.0" y2="327.0" stroke="#222222" stroke-width="2" stroke-linecap="square"/>
<line x1="278.0" y1="305.0" x2="250.0" y2="305.0" stroke="#222222" stroke-width="2" stroke-linecap="square"/>
<text x="246.0" y="310.0" font-family="DejaVu Sans, Noto Sans, sans-serif" font-size="14" font-weight="400" fill="#222" text-anchor="end">B</text>
<line x1="278.0" y1="368.0" x2="278.0" y2="412.0" stroke="#222222" stroke-width="2" stroke-linecap="square"/>
<line x1="278.0" y1="390.0" x2="250.0" y2="390.0" stroke="#222222" stroke-width="2" stroke-linecap="square"/>
<text x="246.0" y="395.0" font-family="DejaVu Sans, Noto Sans, sans-serif" font-size="14" font-weight="400" fill="#222" text-anchor="end">C</text>
<line x1="90.0" y1="250.0" x2="290.0" y2="250.0" stroke="#222222" stroke-width="2" stroke-linecap="square"/>
<line x1="90.0" y1="430.0" x2="290.0" y2="430.0" stroke="#222222" stroke-width="2" stroke-linecap="square"/>
<line x1="200.0" y1="430.0" x2="200.0" y2="444.0" stroke="#222222" stroke-width="2" stroke-linecap="square"/>
<text x="200.0" y="462.0" font-family="DejaVu Sans, Noto Sans, sans-serif" font-size="14" font-weight="400" fill="#222" text-anchor="middle">GND</text>
</svg>
